
<svg width="302px" height="87px" viewBox="0 0 302 87" version="1.1" xmlns="http://www.w3.org/2000/svg" xmlns:xlink="http://www.w3.org/1999/xlink">
    <g id="Page-1" stroke="none" stroke-width="1" fill="none" fill-rule="evenodd">
        <g id="Group-4" transform="translate(0.795147, -1.083156)" fill-rule="nonzero">
            <path d="M12.7925756,20.4383887 C16.6982494,20.3987411 21.1423014,20.7300017 22.7977446,25.3036221 C24.3755889,29.6628541 21.8167087,34.4282519 16.349803,36.4070238 C12.8838563,37.6615394 9.75067934,37.8257044 6.14445093,37.3528401 C5.77113564,37.3263128 5.52167677,36.9720667 5.54820406,36.5987514 L6.1942503,32.2428244 C6.22077759,31.8695091 6.57502365,31.6200503 6.94833893,31.6465775 C9.6102105,31.8550668 12.1230203,31.875034 14.1954421,31.1249113 C16.0534754,30.4523875 17.3023287,28.9900436 16.8496684,27.7394443 C16.2806098,26.1672623 14.1053839,26.1867556 11.4755147,26.2899839 C7.43984837,26.4170955 2.3975665,26.6660806 0.535192926,21.5207576 C-1.1590497,16.8399429 1.29811134,12.7983774 6.08612024,11.0653353 C7.65830226,10.4962767 11.0231908,9.52081541 15.9021559,9.937133 C16.2884043,9.9993917 16.5606614,10.3049732 16.5470673,10.7140199 L16.2712683,14.9763468 C16.244741,15.3496621 15.9391595,15.6219193 15.5301128,15.6083251 C13.7510004,15.6056812 10.3972989,15.6071903 8.39633996,16.3314467 C6.89562075,16.874639 5.67022673,17.8435402 6.19741783,19.1884006 C6.89646891,20.6731186 9.64339743,20.4466949 12.7925756,20.4383887 Z" id="Path" fill="#000000"></path>
            <path d="M33.8188056,4.07718259 C43.760252,2.47326787 48.1377625,10.042664 49.0214287,15.5198383 C49.929305,21.1470721 48.1362156,29.596535 38.1947691,31.2004497 C28.2158078,32.8104169 23.8564548,25.3535655 22.9485786,19.7263316 C22.0649124,14.2491573 23.8398442,5.68714981 33.8188056,4.07718259 Z M37.2868929,25.5732159 C43.3267905,24.598762 43.2212317,18.4571716 42.9065013,16.5063972 C42.5917708,14.5556228 40.772632,8.76747747 34.7327343,9.74193132 C28.6553218,10.7224377 28.7487756,16.7889983 29.063506,18.7397727 C29.3782365,20.6905471 31.2094803,26.5537222 37.2868929,25.5732159 Z" id="Combined-Shape" fill="#000000"></path>
            <path d="M62.394539,22.8979994 C66.0045361,22.8934518 66.9118921,19.2063059 66.9101209,17.800307 L66.8906381,2.33431925 C66.8901594,1.95431955 67.1937762,1.64993683 67.5737759,1.64945814 L72.3237721,1.64347446 C72.7037718,1.64299577 73.0081545,1.94661257 73.0086332,2.32661227 L73.0281161,17.7926 C73.0338125,22.3145964 70.3056174,28.5120381 62.4016237,28.5219949 C54.4976299,28.5319518 51.7538294,22.3414033 51.7481329,17.8194069 L51.7286501,2.35341914 C51.7281714,1.97341944 52.0317882,1.66903672 52.4117879,1.66855803 L57.1237842,1.66262222 C57.5037839,1.66214353 57.8081666,1.96576033 57.8086453,2.34576003 L57.8281281,17.8117478 C57.8298993,19.2177466 58.7845419,22.902547 62.394539,22.8979994 Z" id="Path" fill="#000000" transform="translate(62.378387, 15.082740) rotate(-3.000000) translate(-62.378387, -15.082740) "></path>
            <path d="M81.127984,27.439489 L83.2799908,7.30013989 L77.0454831,6.63394642 C76.6676342,6.59357105 76.3976553,6.2589916 76.4380307,5.88114265 L76.8942722,1.6114495 C76.9346476,1.23360055 77.2692271,0.963621677 77.647076,1.00399704 L96.2750293,2.99450238 C96.6528783,3.03487774 96.9228571,3.36945719 96.8824818,3.74730614 L96.4262402,8.0169993 C96.3858648,8.39484825 96.0512854,8.66482712 95.6734364,8.62445176 L89.3633589,7.95018321 L87.2113521,28.0895323 C87.1709768,28.4673813 86.8363973,28.7373602 86.4585484,28.6969848 L81.7354365,28.1922928 C81.3575875,28.1519174 81.0876087,27.817338 81.127984,27.439489 Z" id="Path" fill="#000000" transform="translate(86.660256, 14.850491) rotate(-2.000000) translate(-86.660256, -14.850491) "></path>
            <path d="M104.156836,20.4483479 L102.300774,29.8814826 C102.227412,30.2543337 101.870441,30.493925 101.49759,30.4205628 L96.8369504,29.5035361 C96.4640993,29.4301739 96.224508,29.0732033 96.2978702,28.7003521 L101.169116,3.9430343 C101.242478,3.57018312 101.599449,3.3305919 101.9723,3.40395404 L106.63294,4.32098078 C107.005791,4.39434292 107.245382,4.75131357 107.17202,5.12416474 L105.249932,14.8928654 L114.906777,16.7929449 L116.828865,7.02424415 C116.902228,6.65139298 117.259198,6.41180175 117.632049,6.48516389 L122.218119,7.3875182 C122.59097,7.46088034 122.830561,7.81785099 122.757199,8.19070216 L117.885953,32.94802 C117.812591,33.3208712 117.45562,33.5604624 117.082769,33.4871002 L112.4967,32.5847459 C112.123848,32.5113838 111.884257,32.1544131 111.957619,31.781562 L113.813682,22.3484273 L104.156836,20.4483479 Z" id="Path" fill="#000000" transform="translate(109.527535, 18.445527) rotate(-2.000000) translate(-109.527535, -18.445527) "></path>
            <path d="M150.597533,13.4746515 L155.41939,41.288437 C155.499122,41.5842457 155.191991,41.8574097 154.897888,41.7804733 L149.64079,40.4052356 C149.236398,40.2994481 148.936088,39.9459372 148.885207,39.5398398 L148.249191,34.4636222 L140.67603,32.4825106 L137.635753,36.5970234 C137.39253,36.9261845 136.957582,37.0873544 136.55319,36.9815669 L131.296092,35.6063292 C131.001989,35.5293928 130.867964,35.1408243 131.045573,34.912335 L148.832913,13.0130333 C149.076135,12.6838723 149.501467,12.5594652 149.869096,12.6556357 C150.236725,12.7518061 150.546652,13.0685541 150.597533,13.4746515 Z M146.914957,24.0985214 L143.716306,28.3679977 L147.576413,29.3777876 L146.914957,24.0985214 Z" id="Combined-Shape" fill="#000000"></path>
            <path d="M176.588046,34.5468994 L185.717547,21.4140135 C185.923016,21.1012032 186.297474,20.9317065 186.672441,20.9933543 C187.047407,21.0550021 187.347887,21.3354647 187.436226,21.7350899 L192.386677,48.5433404 C192.449848,48.8618076 192.169386,49.1622884 191.831916,49.1068054 L186.807371,48.2807252 C186.394908,48.2129126 186.100592,47.8949534 186.012254,47.4953282 L183.820827,33.8875461 L175.564046,46.162651 C175.358576,46.4754613 174.984118,46.6449579 174.609152,46.5833102 C174.234186,46.5216624 173.933705,46.2411998 173.839202,45.8790712 L169.947083,31.6065785 L163.51429,43.7964618 C163.302655,44.1467688 162.922032,44.353762 162.50957,44.2859495 L157.485024,43.4598693 C157.147555,43.4043863 156.978058,43.0299282 157.139866,42.7484496 L170.412767,18.936281 C170.624401,18.585974 170.998859,18.4164774 171.336328,18.4719604 C171.711294,18.5336081 172.049272,18.8202355 172.143775,19.1823641 L176.588046,34.5468994 Z" id="Path" fill="#000000" transform="translate(174.736798, 33.787537) rotate(2.300000) translate(-174.736798, -33.787537) "></path>
            <path d="M210.058391,41.2854134 L201.137401,40.8843704 L200.9292,45.5156929 L212.545467,46.0379021 C212.925084,46.0549677 213.215125,46.3723135 213.198059,46.7519301 L213.005217,51.0415977 C212.988152,51.4212143 212.670806,51.7112551 212.291189,51.6941894 L195.284365,50.9296479 C194.904749,50.9125822 194.614708,50.5952364 194.631774,50.2156198 L195.764934,25.0090776 C195.781999,24.629461 196.099345,24.3394202 196.478962,24.3564859 L213.485785,25.1210274 C213.865402,25.138093 214.155443,25.4554389 214.138377,25.8350555 L213.945535,30.124723 C213.928469,30.5043396 213.611124,30.7943804 213.231507,30.7773147 L201.615239,30.2551056 L201.391679,35.228083 L210.312669,35.629126 C210.692286,35.6461917 210.982326,35.9635375 210.965261,36.3431541 L210.772419,40.6328217 C210.755353,41.0124383 210.438007,41.302479 210.058391,41.2854134 Z" id="Path" fill="#000000" transform="translate(204.385075, 38.025338) rotate(3.200000) translate(-204.385075, -38.025338) "></path>
            <path d="M238.170405,34.2743525 C238.467093,38.0246352 236.634261,40.8760619 233.904022,42.5024465 L238.997636,51.4766928 C239.170141,51.7298768 238.969822,52.0887927 238.666769,52.1127676 L233.401221,52.52933 C232.984523,52.5622954 232.587725,52.364974 232.368349,52.0011418 L227.84811,44.0107409 L225.158514,44.2235174 L225.808831,52.4438339 C225.838799,52.8226504 225.559721,53.1496783 225.180904,53.1796469 L220.521462,53.5482596 C220.142646,53.5782282 219.815618,53.2991498 219.785649,52.9203334 L217.79574,27.7669224 C217.765771,27.388106 218.044849,27.061078 218.423666,27.0311095 L227.894077,26.2818965 C235.243115,25.7005073 237.885704,30.6755964 238.170405,34.2743525 Z M229.17902,38.1876424 C231.748978,37.9080932 232.18726,35.7387716 232.109342,34.7538488 C232.022434,33.6552812 231.254497,31.6576221 228.527019,31.8733954 L224.208512,32.2150366 L224.708986,38.541271 L229.17902,38.1876424 Z" id="Combined-Shape" fill="#000000" transform="translate(228.427444, 39.892846) rotate(4.000000) translate(-228.427444, -39.892846) "></path>
            <path d="M245.410946,26.4755109 L250.367282,51.2159346 C250.441925,51.5885314 250.203563,51.9463236 249.830966,52.0209672 L245.210766,52.9465479 C244.83817,53.0211916 244.480377,52.782829 244.405734,52.4102323 L239.449398,27.6698086 C239.374755,27.2972119 239.613117,26.9394196 239.985714,26.864776 L244.605914,25.9391953 C244.97851,25.8645517 245.336303,26.1029142 245.410946,26.4755109 Z" id="Path" fill="#000000" transform="translate(244.908340, 39.442872) rotate(7.000000) translate(-244.908340, -39.442872) "></path>
            <path d="M270.814836,26.0723475 L268.927882,29.906247 C268.755243,30.2111002 268.362142,30.3532115 268.021552,30.1934908 C265.965095,29.1994304 263.105661,28.7785054 261.211629,29.4632237 C255.422324,31.5561362 256.615783,37.4281645 257.287582,39.2864599 C257.959381,41.1447554 260.783797,46.3867634 266.608839,44.2809317 C268.61008,43.5574558 270.555271,41.5612213 271.731035,39.5602967 C271.939411,39.2425242 272.332512,39.1004129 272.650285,39.3087892 L276.175475,41.3477525 C276.528984,41.5432096 276.648278,41.9849663 276.488558,42.3255559 C274.771222,45.7344736 272.337806,48.3920913 268.549742,49.7615279 C259.043846,53.1980386 253.400422,46.7527593 251.46254,41.3922916 C249.576335,36.1747698 249.754932,27.5035302 259.260828,24.0670196 C263.334783,22.5942293 266.93395,23.2730207 270.514673,25.1302806 C270.855263,25.2900012 270.974557,25.7317579 270.814836,26.0723475 Z" id="Path" fill="#000000" transform="translate(263.538376, 36.996222) rotate(2.000000) translate(-263.538376, -36.996222) "></path>
            <path d="M280.155814,19.9123721 L301.356178,38.5510824 C301.603809,38.7314671 301.535927,39.1368557 301.258607,39.261395 L296.301526,41.4875356 C295.920212,41.6587772 295.464591,41.5717971 295.170258,41.2874177 L291.491085,37.7326756 L284.350115,40.9395635 L284.562797,46.0510473 C284.579812,46.459966 284.342135,46.8582945 283.960821,47.0295361 L279.003739,49.2556767 C278.72642,49.380216 278.378324,49.1616364 278.373347,48.8722798 L278.491898,20.6596081 C278.474884,20.2506894 278.728128,19.8870258 279.074777,19.7313516 C279.421426,19.5756774 279.86148,19.6279927 280.155814,19.9123721 Z M283.950909,30.4965692 L284.137433,35.8280797 L287.777248,34.1935009 L283.950909,30.4965692 Z" id="Combined-Shape" fill="#000000" transform="translate(289.941217, 34.468300) rotate(4.000000) translate(-289.941217, -34.468300) "></path>
            <path d="M14.5455557,70.0319039 L13.106126,68.4256449 L9.79829562,69.6263194 L9.74595873,71.7740591 C9.73795497,72.0216474 9.57668973,72.2514615 9.33887187,72.3377845 L6.54991687,73.350118 C6.37695842,73.4128983 6.17661167,73.2654054 6.20815807,73.0826765 L7.48192328,58.7957339 C7.49377271,58.6935595 7.5567093,58.5973099 7.66480833,58.5580722 C7.77290736,58.5188345 7.88292922,58.5523037 7.95755902,58.6230878 L18.0990515,68.7665261 C18.2404635,68.8864746 18.1813726,69.1281381 18.0084141,69.1909185 L15.2194591,70.2032519 C14.9816413,70.2895749 14.7105104,70.2167118 14.5455557,70.0319039 Z M9.95036711,64.9221428 L9.86840665,67.3253183 L11.5547515,66.7132097 L9.95036711,64.9221428 Z M30.6938532,49.9792666 L32.3327124,51.6062237 C32.4834376,51.76231 32.4910156,52.0193461 32.3124314,52.1748508 C31.2552645,53.1753723 30.3645605,54.5167429 29.7553713,55.6337159 C29.9932897,55.5361462 30.2134896,55.4658539 30.5509586,55.3941623 C34.5583891,54.7779603 36.0571356,57.5162933 36.4825057,59.5186093 C36.8170664,61.0934646 36.585689,64.763662 32.3110819,65.6717555 C28.0139768,66.5846285 26.2722965,63.1454793 25.9377358,61.570624 C24.8384647,56.3960996 27.4560222,52.3365507 30.0802304,49.9685444 C30.2588146,49.8130398 30.5206301,49.8279598 30.6938532,49.9792666 Z M31.6371809,62.4995471 C32.8745672,62.2366779 33.3214913,61.1306631 33.111196,60.140754 C32.9056801,59.173343 32.09272,58.3349767 30.8103379,58.6074048 C29.5504537,58.8750534 29.1389665,59.9265135 29.3090454,60.9484793 C29.5193408,61.9383883 30.3772967,62.7671957 31.6371809,62.4995471 Z M56.0103728,62.4553249 C55.8956936,62.4639088 55.775864,62.4036853 55.7231252,62.3153756 L51.8576014,56.584925 L50.2157082,62.3816526 C50.1411329,62.6178781 49.9467279,62.7938802 49.6944337,62.8127649 L46.8045183,63.0290814 C46.5980957,63.0445326 46.4450295,62.8484108 46.5001027,62.6597737 L50.4400981,49.3565672 C50.4773858,49.2384544 50.5639787,49.1627797 50.6786579,49.1541957 C50.7933371,49.1456117 50.8902308,49.2075521 50.9659055,49.294145 L55.5760231,56.6525582 L59.0393201,48.6898324 C59.0783246,48.5946554 59.1878534,48.5172639 59.3025325,48.50868 C59.4172117,48.500096 59.5141055,48.5620363 59.5685611,48.6732819 L65.4451038,61.2416992 C65.5276457,61.4200355 65.4054819,61.6367588 65.1990593,61.65221 L62.3091439,61.8685264 C62.0568497,61.8874112 61.8154738,61.7440283 61.7294983,61.5198203 L59.2429408,56.0321163 L56.2735853,62.2741724 C56.2116449,62.3710662 56.125052,62.4467409 56.0103728,62.4553249 Z M73.5713505,48.083709 C78.6080415,48.1394962 80.0573521,52.2728015 80.0272933,54.986635 C79.9962155,57.7924629 78.4554547,61.9156512 73.4187637,61.859864 C68.4280698,61.8045863 66.979014,57.6482824 67.0100917,54.8424545 C67.0401506,52.128621 68.5806566,48.0284313 73.5713505,48.083709 Z M73.4554456,58.5480672 C76.1002834,58.5773618 76.4988292,55.8216068 76.5085091,54.9476604 C76.5181891,54.0737141 76.1795063,51.4248005 73.5346685,51.3955059 C70.8898307,51.3662112 70.4695601,54.0067185 70.4598801,54.8806649 C70.4502002,55.7546113 70.8106079,58.5187725 73.4554456,58.5480672 Z M86.2293957,62.1457863 L83.5687809,61.9474098 C83.3394176,61.9303084 83.169608,61.7331366 83.1867095,61.5037732 L84.1460992,48.6364899 C84.1563601,48.4988719 84.2795925,48.392741 84.4172105,48.4030018 C84.5777648,48.4149728 84.7331887,48.4957528 84.8410298,48.5960488 L91.1667361,55.3179974 L91.6011122,49.4921686 C91.6182137,49.2628053 91.8153855,49.0929957 92.0447488,49.1100972 L94.7282999,49.3101838 C94.9576632,49.3272852 95.1274728,49.524457 95.1103713,49.7538204 L94.1509816,62.6211037 C94.1407207,62.7587217 93.9928419,62.8860789 93.8322875,62.8741079 C93.6487968,62.8604267 93.4933729,62.7796467 93.3643056,62.6547042 L87.0971475,56.075504 L86.6730322,61.7637149 C86.6559308,61.9930782 86.458759,62.1628877 86.2293957,62.1457863 Z M100.188595,62.9734918 L101.388891,53.2956411 L98.5585765,52.9446112 C98.3303253,52.9163023 98.1703714,52.7110542 98.1986803,52.482803 L98.4987543,50.0633404 C98.5270632,49.8350892 98.7323112,49.6751353 98.9605624,49.7034442 L108.181911,50.8471225 C108.410162,50.8754314 108.570116,51.0806794 108.541807,51.3089306 L108.241733,53.7283933 C108.213424,53.9566445 108.008176,54.1165983 107.779925,54.0882895 L104.858309,53.7259359 L103.658013,63.4037866 C103.629705,63.6320378 103.424456,63.7919917 103.196205,63.7636828 L100.548491,63.4352999 C100.32024,63.406991 100.160286,63.201743 100.188595,62.9734918 Z M113.971591,60.1934861 L113.191382,64.8201629 C113.153137,65.0469607 112.941102,65.1978026 112.714304,65.1595571 L110.060769,64.7120844 C109.833971,64.6738389 109.683129,64.4618042 109.721375,64.2350063 L111.81723,51.8064823 C111.855475,51.5796844 112.06751,51.4288426 112.294308,51.4670881 L114.947843,51.9145608 C115.174641,51.9528063 115.325483,52.164841 115.287237,52.3916389 L114.518502,56.9502763 L118.464785,57.6157485 L119.23352,53.0571111 C119.271766,52.8303132 119.483801,52.6794713 119.710599,52.7177168 L122.341454,53.161365 C122.568252,53.1996105 122.719094,53.4116452 122.680848,53.6384431 L120.584993,66.0669671 C120.546748,66.293765 120.334713,66.4446068 120.107915,66.4063613 L117.47706,65.9627132 C117.250262,65.9244677 117.09942,65.7124329 117.137665,65.485635 L117.917874,60.8589582 L113.971591,60.1934861 Z M130.699665,63.9773316 L132.912449,63.5869931 C133.134753,63.5434751 133.333313,63.7068731 133.376831,63.9291773 C133.543127,65.2649059 134.068898,66.1638023 135.053507,66.294685 C136.474368,66.4781856 136.857752,65.0086766 136.96547,64.5378414 L138.69409,56.9820571 C138.745384,56.7578498 138.965785,56.6195195 139.189993,56.6708139 L141.768376,57.2606988 C141.992583,57.3119931 142.130913,57.5323944 142.079619,57.7566016 L140.351,65.3123859 C139.863704,67.4423548 138.236592,70.326108 134.335386,69.4335865 C131.555216,68.7975367 130.544709,66.8203781 130.30751,64.4538758 C130.286412,64.236701 130.45494,64.0157201 130.699665,63.9773316 Z M152.05461,59.7116026 C156.922901,61.0043171 157.311226,65.367105 156.614694,67.9902025 C155.894552,70.7022185 153.38712,74.3198713 148.518829,73.0271568 C143.694998,71.746248 143.312576,67.3612304 144.032718,64.6492144 C144.729249,62.0261169 147.230778,58.4306937 152.05461,59.7116026 Z M149.368833,69.8260887 C151.925242,70.5049114 152.989253,67.9317995 153.21356,67.0870732 C153.437866,66.2423469 153.761015,63.5914934 151.204606,62.9126707 C148.648197,62.2338481 147.591471,64.6899089 147.367164,65.5346352 C147.142858,66.3793616 146.812425,69.147266 149.368833,69.8260887 Z M163.50117,73.5969634 C164.923964,73.9743778 165.668871,72.6014752 165.816299,72.0456964 L167.815416,64.5093351 C167.874387,64.2870236 168.099413,64.1563512 168.321724,64.2153222 L170.922769,64.9052829 C171.145081,64.9642539 171.275753,65.1892799 171.216782,65.4115915 L169.217665,72.9479527 C168.63975,75.1266058 166.509772,77.7739856 162.663782,76.7537872 C158.862255,75.7453831 158.302263,72.3844542 158.880179,70.2058011 L160.879296,62.6694399 C160.938267,62.4471283 161.163293,62.3164559 161.385604,62.3754269 L163.964418,63.0594905 C164.18673,63.1184615 164.317402,63.3434876 164.258431,63.5657991 L162.259314,71.1021603 C162.111887,71.6579392 162.078377,73.2195489 163.50117,73.5969634 Z M175.395623,75.1336342 L174.484257,79.1249057 C174.433057,79.3491344 174.212713,79.4875571 173.988485,79.4363568 L171.409854,78.8475529 C171.185626,78.7963526 171.047203,78.5760093 171.098403,78.3517806 L173.904182,66.0640459 C173.955382,65.8398172 174.175725,65.7013945 174.399954,65.7525948 L178.97422,66.7970818 C182.629149,67.6316473 183.126883,70.4111936 182.71728,72.2050235 C182.353758,73.7970475 181.237389,74.8632872 179.919742,75.3645431 L181.156033,80.6955216 C181.209885,80.8729618 181.029267,81.0440475 180.849884,81.0030872 L177.93491,80.3374828 C177.688259,80.2811624 177.49475,80.0954248 177.456259,79.850716 L176.561613,75.399876 L175.395623,75.1336342 Z M176.127788,71.9271633 L177.899195,72.331646 C178.840956,72.5466875 179.277049,71.7733615 179.353849,71.4370184 C179.45113,71.0109838 179.373439,70.2147086 178.36441,69.9843071 L176.660272,69.5951845 L176.127788,71.9271633 Z M187.351919,82.2764974 L184.728556,81.7905019 C184.502404,81.7486058 184.355,81.5341673 184.396896,81.3080153 L186.74727,68.62089 C186.772408,68.4851988 186.906432,68.3930709 187.042123,68.4182086 C187.20043,68.4475359 187.346167,68.5447088 187.442485,68.6561177 L193.001197,76.0249623 L194.065359,70.2807024 C194.107256,70.0545504 194.321694,69.9071457 194.547846,69.9490419 L197.193824,70.439227 C197.419976,70.4811231 197.567381,70.6955616 197.525485,70.9217136 L195.17511,83.6088389 C195.149972,83.7445301 194.989143,83.8550836 194.830837,83.8257562 C194.649915,83.7922393 194.504178,83.6950664 194.389435,83.5568527 L188.87343,76.3362682 L187.834406,81.9448369 C187.79251,82.1709889 187.578071,82.3183935 187.351919,82.2764974 Z M207.01133,80.2905397 L202.933315,79.7253123 L202.683857,81.5251067 L208.037676,82.267165 C208.265498,82.2987419 208.422494,82.5062612 208.390917,82.7340832 L208.053043,85.1717794 C208.021466,85.3996015 207.813947,85.5565976 207.586125,85.5250206 L199.202273,84.3629889 C198.974451,84.3314119 198.817455,84.1238927 198.849032,83.8960707 L200.579448,71.4114211 C200.611025,71.1835991 200.818545,71.026603 201.046367,71.0581799 L209.430219,72.2202116 C209.658041,72.2517886 209.815037,72.4593078 209.78346,72.6871299 L209.448745,75.1020438 C209.417168,75.3298659 209.209648,75.486862 208.981826,75.4552851 L203.628008,74.7132268 L203.384865,76.4674567 L207.46288,77.0326841 C207.690702,77.064261 207.847698,77.2717803 207.816121,77.4996023 L207.478248,79.9372985 C207.446671,80.1651206 207.239152,80.3221167 207.01133,80.2905397 Z M218.572533,80.7085687 L218.100136,86.1159734 C218.080119,86.3451007 217.880804,86.5123891 217.651676,86.4923722 L215.016712,86.2621786 C214.787585,86.2421618 214.620297,86.0428465 214.640313,85.8137191 L215.110709,80.4292272 L211.389822,72.8084842 C211.310181,72.6630011 211.44276,72.4667949 211.626062,72.4828084 L214.765106,72.7570391 C215.017146,72.7790576 215.234263,72.9365508 215.351723,73.1776882 L217.100499,77.2091803 L219.590578,73.5479997 C219.748072,73.3308825 219.989209,73.2134229 220.241249,73.2354414 L223.380293,73.5096721 C223.563595,73.5256855 223.660144,73.7419085 223.556483,73.8713782 L218.572533,80.7085687 Z M225.178222,85.2397692 C225.195505,84.1589074 226.105997,83.3223577 227.140864,83.3389056 C228.198729,83.3558212 229.036014,84.2203185 229.018731,85.3011803 C229.001815,86.3590451 228.137318,87.1963303 227.079453,87.1794146 C226.044585,87.1628667 225.161306,86.297634 225.178222,85.2397692 Z M230.835499,85.3302311 C230.852782,84.2493693 231.763273,83.4128196 232.798141,83.4293675 C233.856006,83.4462832 234.693291,84.3107805 234.676008,85.3916423 C234.659092,86.4495071 233.794595,87.2867922 232.73673,87.2698766 C231.701862,87.2533287 230.818583,86.3880959 230.835499,85.3302311 Z M236.515772,85.4210608 C236.533056,84.340199 237.443547,83.5036493 238.478415,83.5201972 C239.53628,83.5371129 240.373565,84.4016102 240.356282,85.482472 C240.339366,86.5403367 239.474869,87.3776219 238.417004,87.3607063 C237.382136,87.3441583 236.498857,86.4789256 236.515772,85.4210608 Z" id="a6monthjourney…" fill="#9AABB8"></path>
        </g>
    </g>
</svg>
