<svg width="302" height="84" xmlns="http://www.w3.org/2000/svg">
  <g fill-rule="nonzero" fill="none">
    <path d="M9.398 50.706l12.255 12.95c.145.127.08.378-.102.44l-3.247 1.114a.654.654 0 0 1-.7-.192l-2.108-2.448-4.677 1.604-.162 3.227a.654.654 0 0 1-.435.58l-3.246 1.113c-.182.063-.388-.095-.374-.277L8.308 51.08a.624.624 0 0 1 1.09-.374zm1.774 6.877l-.19 3.363 2.383-.817-2.193-2.546zM35.36 44.426l1.66 1.747a.406.406 0 0 1-.039.593c-1.133 1.011-2.103 2.383-2.772 3.53.25-.095.483-.162.837-.226 4.198-.52 5.678 2.381 6.06 4.483.301 1.653-.052 5.474-4.538 6.29-4.51.821-6.222-2.819-6.523-4.472-.988-5.43 1.866-9.585 4.675-11.975a.487.487 0 0 1 .64.03zm.602 13.088c1.298-.236 1.798-1.376 1.61-2.415-.186-1.016-1.008-1.915-2.354-1.67-1.322.24-1.783 1.325-1.637 2.396.189 1.04 1.058 1.93 2.38 1.69zm25.403.706a.333.333 0 0 1-.295-.155l-3.856-6.096-1.89 5.996a.622.622 0 0 1-.558.434l-3.02.137a.305.305 0 0 1-.307-.395l4.518-13.755c.042-.122.135-.198.255-.203.12-.006.219.062.295.154l4.583 7.817 3.856-8.2a.333.333 0 0 1 .28-.18c.12-.006.22.062.273.18l5.744 13.289a.305.305 0 0 1-.27.42l-3.02.138a.599.599 0 0 1-.594-.382l-2.425-5.8-3.289 6.42c-.067.099-.16.175-.28.18zm18.75-14.461c5.251.208 6.64 4.562 6.528 7.392-.116 2.925-1.845 7.18-7.097 6.972-5.204-.206-6.592-4.584-6.476-7.51.112-2.83 1.84-7.06 7.045-6.854zm-.433 10.911c2.758.11 3.256-2.753 3.292-3.665.036-.91-.238-3.684-2.996-3.793-2.758-.11-3.275 2.632-3.311 3.544-.036.911.258 3.805 3.015 3.914zm13.24 4.127l-2.77-.283a.43.43 0 0 1-.386-.473l1.368-13.395a.266.266 0 0 1 .29-.235.758.758 0 0 1 .436.213l6.406 7.192.62-6.064a.43.43 0 0 1 .473-.386l2.794.285a.43.43 0 0 1 .386.474l-1.368 13.394c-.015.144-.173.272-.34.255a.775.775 0 0 1-.482-.242L94 52.49l-.604 5.921a.43.43 0 0 1-.474.386zm14.53 1.257l1.518-10.062-2.943-.444a.43.43 0 0 1-.362-.492l.379-2.515a.43.43 0 0 1 .492-.363l9.587 1.446a.43.43 0 0 1 .363.492l-.38 2.515a.43.43 0 0 1-.491.363l-3.038-.458-1.517 10.062a.43.43 0 0 1-.492.363l-2.752-.415a.43.43 0 0 1-.363-.492zm14.45-2.53l-.935 4.806a.43.43 0 0 1-.507.342l-2.756-.536a.43.43 0 0 1-.342-.507l2.512-12.91a.43.43 0 0 1 .507-.341l2.756.536a.43.43 0 0 1 .342.507l-.922 4.735 4.1.797.92-4.735a.43.43 0 0 1 .507-.342l2.733.532a.43.43 0 0 1 .342.507l-2.512 12.91a.43.43 0 0 1-.507.341l-2.732-.531a.43.43 0 0 1-.342-.507l.935-4.806-4.1-.797zm17.335 4.376l2.318-.353c.233-.04.436.135.476.368.141 1.397.667 2.348 1.691 2.509 1.478.226 1.914-1.298 2.038-1.786l1.988-7.84a.43.43 0 0 1 .525-.312l2.676.678a.43.43 0 0 1 .312.525l-1.988 7.84c-.56 2.21-2.329 5.178-6.377 4.152-2.884-.732-3.89-2.82-4.08-5.294-.016-.227.165-.453.421-.487zm22.25-4.072c5.065 1.404 5.42 5.96 4.664 8.69-.782 2.82-3.44 6.567-8.504 5.163-5.019-1.391-5.368-5.971-4.586-8.793.757-2.729 3.408-6.452 8.426-5.06zM158.57 68.35c2.66.737 3.8-1.936 4.043-2.815.243-.878.61-3.64-2.049-4.378-2.66-.737-3.79 1.813-4.034 2.692-.243.879-.62 3.763 2.04 4.5zm14.674 3.74c1.495.355 2.234-1.098 2.372-1.682l1.875-7.917a.43.43 0 0 1 .52-.321l2.732.647a.43.43 0 0 1 .321.52l-1.875 7.917c-.542 2.289-2.69 5.11-6.73 4.153-3.994-.946-4.672-4.436-4.13-6.725l1.875-7.917a.43.43 0 0 1 .52-.32l2.71.641a.43.43 0 0 1 .32.52l-1.875 7.917c-.138.584-.13 2.214 1.365 2.568zm12.417 1.234l-.817 4.194a.43.43 0 0 1-.506.341l-2.71-.528a.43.43 0 0 1-.34-.507l2.515-12.909a.43.43 0 0 1 .507-.341l4.805.936c3.84.749 4.452 3.63 4.085 5.515-.326 1.673-1.455 2.822-2.812 3.39l1.467 5.518c.062.183-.12.367-.309.33l-3.062-.596a.633.633 0 0 1-.516-.492l-1.082-4.612-1.225-.239zm.657-3.368l1.86.363c.99.192 1.42-.629 1.488-.982.087-.448-.02-1.276-1.08-1.482l-1.79-.35-.478 2.45zm12.058 10.383l-2.755-.4a.43.43 0 0 1-.365-.49l1.936-13.324a.266.266 0 0 1 .299-.223c.166.024.322.12.427.232l6.095 7.458.876-6.033a.43.43 0 0 1 .49-.365l2.779.403a.43.43 0 0 1 .365.49l-1.936 13.324c-.02.143-.183.264-.35.24a.775.775 0 0 1-.47-.262l-6.045-7.305-.856 5.89a.43.43 0 0 1-.49.365zm20.381-2.951l-4.278-.39-.172 1.888 5.617.512a.43.43 0 0 1 .391.469l-.233 2.557a.43.43 0 0 1-.47.391l-8.795-.8a.43.43 0 0 1-.39-.47l1.191-13.097a.43.43 0 0 1 .47-.391l8.795.8a.43.43 0 0 1 .391.47l-.23 2.533a.43.43 0 0 1-.47.391l-5.616-.511-.168 1.84 4.278.39a.43.43 0 0 1 .392.47l-.233 2.557a.43.43 0 0 1-.47.39zm12.024-.221l-.173 5.661a.43.43 0 0 1-.444.419l-2.76-.085a.43.43 0 0 1-.418-.444l.172-5.638-4.327-7.72c-.091-.146.035-.358.227-.353l3.287.1c.264.009.5.16.636.404l2.06 4.097 2.378-3.961a.757.757 0 0 1 .659-.365l3.286.1c.192.007.306.226.205.367l-4.788 7.418z" fill="#9AABB8"/>
    <path d="M13.588 19.355c3.905-.04 8.35.292 10.005 4.865 1.578 4.36-.981 9.125-6.448 11.104-3.466 1.254-6.6 1.419-10.205.946-.374-.027-.623-.381-.597-.754l.646-4.356c.027-.374.381-.623.754-.597 2.662.209 5.175.229 7.248-.521 1.858-.673 3.106-2.135 2.654-3.386-.57-1.572-2.744-1.552-5.374-1.45-4.036.128-9.078.377-10.94-4.768-1.695-4.681.762-8.723 5.55-10.456 1.572-.569 4.937-1.544 9.816-1.128a.741.741 0 0 1 .645.777l-.276 4.262c-.026.374-.332.646-.74.632-1.78-.002-5.134-.001-7.135.723-1.5.543-2.726 1.512-2.198 2.857.699 1.485 3.446 1.259 6.595 1.25zM34.614 2.994C44.555 1.39 48.933 8.96 49.817 14.437c.907 5.627-.886 14.076-10.827 15.68-9.979 1.61-14.338-5.847-15.246-11.474-.884-5.477.891-14.039 10.87-15.649zm3.468 21.496c6.04-.974 5.934-7.116 5.62-9.067-.315-1.95-2.134-7.739-8.174-6.764-6.078.98-5.984 7.047-5.67 8.998.315 1.95 2.147 7.814 8.224 6.833zM63.599 21.803c3.604-.193 4.318-3.923 4.242-5.327l-.829-15.444c-.02-.379.267-.699.647-.72l4.743-.254c.38-.02.7.267.72.647l.828 15.443c.243 4.516-2.157 10.848-10.05 11.271-7.893.424-10.957-5.615-11.199-10.13l-.829-15.444c-.02-.38.267-.7.647-.72l4.705-.252c.38-.02.7.267.72.646l.828 15.444c.076 1.404 1.222 5.034 4.827 4.84zM82.366 26.542L83.814 6.34 77.56 5.89a.681.681 0 0 1-.634-.73l.307-4.284a.681.681 0 0 1 .731-.633l18.687 1.339c.379.027.66.352.633.731l-.307 4.283a.681.681 0 0 1-.731.634l-6.33-.454-1.448 20.202a.681.681 0 0 1-.73.633l-4.739-.34a.681.681 0 0 1-.633-.73zM105.025 19.551l-1.526 9.493a.681.681 0 0 1-.783.566l-4.69-.753a.681.681 0 0 1-.567-.784l4.004-24.913a.681.681 0 0 1 .784-.566l4.69.753c.375.06.627.41.567.784l-1.58 9.83 9.717 1.562 1.58-9.83a.681.681 0 0 1 .784-.567l4.615.742c.375.06.627.409.566.784l-4.004 24.912a.681.681 0 0 1-.784.567l-4.615-.742a.681.681 0 0 1-.566-.784l1.525-9.492-9.717-1.562zM151.393 12.391l4.822 27.814c.08.296-.228.57-.522.492l-5.257-1.375a1.035 1.035 0 0 1-.756-.865l-.636-5.077-7.573-1.98-3.04 4.114c-.243.329-.678.49-1.083.384l-5.257-1.375c-.294-.077-.428-.465-.25-.694l17.787-21.9a.988.988 0 0 1 1.765.462zm-3.683 10.624l-3.199 4.27 3.86 1.01-.66-5.28zM177.351 33.537l9.65-12.755a.96.96 0 0 1 .97-.382.937.937 0 0 1 .734.771l3.87 26.986c.05.32-.242.61-.576.54l-4.988-1.027c-.41-.084-.69-.414-.763-.816l-1.643-13.685-8.743 11.934a.96.96 0 0 1-.971.382.96.96 0 0 1-.741-.735l-3.316-14.417-6.917 11.922c-.226.341-.614.533-1.024.449l-4.987-1.027a.483.483 0 0 1-.316-.725l14.217-23.26c.226-.342.607-.496.942-.427.372.076.698.376.778.742l3.824 15.53zM210.663 40.514l-8.885-.899-.466 4.613 11.569 1.17c.378.038.65.371.611.75l-.432 4.271a.681.681 0 0 1-.749.612l-16.938-1.713a.681.681 0 0 1-.611-.749l2.538-25.104a.681.681 0 0 1 .75-.612l16.937 1.713c.378.038.65.371.612.75l-.432 4.272a.681.681 0 0 1-.75.611l-11.569-1.17-.5 4.953 8.884.899c.378.038.65.37.612.749l-.432 4.272a.681.681 0 0 1-.75.612zM239.334 33.885c.034 3.761-1.993 6.478-4.83 7.91l4.455 9.308c.154.264-.07.608-.374.611l-5.282.048c-.418.004-.8-.22-.994-.599l-3.952-8.286-2.697.025.075 8.245a.681.681 0 0 1-.678.69l-4.674.043a.681.681 0 0 1-.69-.677l-.23-25.231a.681.681 0 0 1 .677-.69l9.5-.087c7.372-.068 9.66 5.08 9.694 8.69zm-9.243 3.276c2.583-.1 3.172-2.233 3.163-3.221-.01-1.102-.637-3.148-3.373-3.123l-4.331.04.057 6.345 4.484-.04zM247.783 25.55l1.904 25.16a.681.681 0 0 1-.63.734l-4.699.356a.681.681 0 0 1-.734-.63l-1.904-25.16a.681.681 0 0 1 .63-.735l4.699-.355a.681.681 0 0 1 .734.63zM271.987 25.25l-2.02 3.766a.703.703 0 0 1-.916.255c-2.02-1.065-4.863-1.586-6.78-.968-5.859 1.89-4.87 7.8-4.264 9.68.606 1.881 3.246 7.219 9.14 5.317 2.026-.653 4.04-2.58 5.285-4.539.219-.31.617-.438.927-.219l3.452 2.161c.347.208.45.653.279.988-1.835 3.347-4.36 5.918-8.194 7.154-9.62 3.103-15.035-3.535-16.784-8.96-1.703-5.28-1.222-13.94 8.398-17.043 4.123-1.33 7.696-.525 11.21 1.456.334.171.438.617.267.952zM281.99 18.182l19.849 20.072c.234.197.138.597-.147.702l-5.1 1.875c-.393.144-.841.026-1.115-.279l-3.422-3.802-7.348 2.7-.144 5.114c-.011.41-.276.79-.669.935l-5.1 1.875c-.285.104-.617-.138-.602-.427l2.086-28.136a.988.988 0 0 1 1.712-.629zm3.048 10.823l-.186 5.332 3.745-1.377-3.56-3.955z" fill="#000"/>
  </g>
</svg>
