
<svg width="302px" height="84px" viewBox="0 0 302 84" version="1.1" xmlns="http://www.w3.org/2000/svg" xmlns:xlink="http://www.w3.org/1999/xlink">
    <g id="Page-1" stroke="none" stroke-width="1" fill="none" fill-rule="evenodd">
        <g id="Group-8" transform="translate(0.795147, -1.083156)" fill-rule="nonzero">
            <path d="M8.60271821,51.7895538 L20.857933,64.7382816 C21.0032396,64.8660548 20.9370957,65.1170866 20.7554787,65.1793702 L17.5090734,66.292688 C17.2593499,66.3783279 16.9778304,66.2972673 16.8091675,66.1013877 L14.7008808,63.6528928 L10.024241,65.2566934 L9.86231423,68.4837323 C9.84936009,68.7418954 9.67683681,68.9786647 9.42711333,69.0643045 L6.18070804,70.1776224 C5.99909096,70.2399059 5.79280919,70.0822993 5.80641752,69.9000281 L7.51301574,52.1632549 C7.52596988,51.9050918 7.70627859,51.6910246 7.93329994,51.6131702 C8.16032129,51.5353158 8.43405528,51.5936742 8.60271821,51.7895538 Z M10.3772738,58.6657487 L10.1861678,62.0296546 L12.569892,61.2121834 L10.3772738,58.6657487 Z M34.565017,45.5093853 L36.2247177,47.2563969 C36.3771626,47.4238023 36.3772178,47.6921304 36.1862004,47.8488734 C35.0529902,48.860167 34.0829978,50.2320601 33.4134866,51.3784958 C33.6646223,51.2839926 33.8964441,51.2173995 34.250624,51.1529279 C38.4493161,50.6325809 39.9289379,53.5345139 40.3114695,55.6359814 C40.612337,57.288821 40.2589299,61.1098867 35.772651,61.9265272 C31.2627601,62.7474658 29.5511509,59.1071414 29.2502833,57.4543018 C28.2617185,52.0235431 31.1158756,47.869236 33.9253165,45.4794641 C34.1163339,45.3227212 34.3889602,45.346278 34.565017,45.5093853 Z M35.1666178,58.597236 C36.4652775,58.3608401 36.9652067,57.2208792 36.7760899,56.1819515 C36.5912713,55.1666357 35.7689288,54.2673689 34.4230451,54.512361 C33.1007734,54.7530551 32.639472,55.8371957 32.7856629,56.9083317 C32.9747796,57.9472594 33.8443461,58.8379301 35.1666178,58.597236 Z M60.5698702,59.302697 C60.4499934,59.3081335 60.3268547,59.241644 60.2745548,59.1479172 L56.4184383,53.0523583 L54.5281347,59.0481542 C54.4431064,59.292257 54.2349394,59.4698703 53.9712104,59.4818307 L50.9503154,59.6188319 C50.7345372,59.6286177 50.5808993,59.4193633 50.6441268,59.2242986 L55.1616099,45.4695125 C55.204124,45.3474611 55.2967635,45.2711858 55.4166403,45.2657492 C55.5365171,45.2603127 55.6356805,45.3278895 55.7119558,45.420529 L60.2947805,53.2369316 L64.1512815,45.0377955 C64.194883,44.9397195 64.3114978,44.8623568 64.4313746,44.8569203 C64.5512514,44.8514837 64.6504148,44.9190606 64.703802,45.0367627 L70.4477719,58.3261796 C70.5283965,58.5147206 70.3943301,58.7370226 70.1785519,58.7468084 L67.1576569,58.8838096 C66.893928,58.8957701 66.6465632,58.7388157 66.563764,58.502324 L64.1385034,52.7022441 L60.8499633,59.1218217 C60.7823865,59.2209851 60.689747,59.2972604 60.5698702,59.302697 Z M79.3193947,44.841827 C84.5712786,45.0497974 85.960072,49.4041595 85.8480148,52.2339417 C85.7321592,55.1596487 84.0024463,59.4145392 78.7505624,59.2065688 C73.5466409,59.0004976 72.1587972,54.6221544 72.2746528,51.6964474 C72.38671,48.8666652 74.1154732,44.6357559 79.3193947,44.841827 Z M78.8873101,55.7532753 C81.6451486,55.8624835 82.1428043,52.9999331 82.1788905,52.0886473 C82.2149767,51.1773615 81.9404856,48.4043287 79.182647,48.2951205 C76.4248085,48.1859123 75.9079198,50.9276071 75.8718336,51.8388929 C75.8357474,52.7501786 76.1294715,55.6440671 78.8873101,55.7532753 Z M92.1261213,59.8804257 L89.3565334,59.5975151 C89.1177758,59.5731262 88.9462808,59.3626091 88.9706696,59.1238515 L90.3388841,45.729551 C90.3535174,45.5862965 90.4850906,45.4791121 90.6283452,45.4937454 C90.7954755,45.5108176 90.9552891,45.5995171 91.0649124,45.7072145 L97.4711991,52.899455 L98.0906758,46.8350124 C98.1150647,46.5962548 98.3255818,46.4247598 98.5643394,46.4491487 L101.357803,46.7344982 C101.596561,46.7588871 101.768056,46.9694042 101.743667,47.2081618 L100.375452,60.6024623 C100.360819,60.7457168 100.202931,60.8743381 100.035801,60.8572659 C99.8447949,60.8377548 99.6849812,60.7490553 99.5539211,60.6150432 L93.2046284,53.5733739 L92.5997849,59.494562 C92.5753961,59.7333196 92.3648789,59.9048146 92.1261213,59.8804257 Z M106.657652,61.1372234 L108.174981,51.0749827 L105.23225,50.6312355 C104.994933,50.5954495 104.833709,50.376967 104.869495,50.13965 L105.248827,47.6240898 C105.284613,47.3867728 105.503096,47.2255481 105.740413,47.2613342 L115.328019,48.7070911 C115.565336,48.7428772 115.726561,48.9613596 115.690775,49.1986766 L115.311443,51.7142368 C115.275657,51.9515538 115.057174,52.1127785 114.819857,52.0769925 L111.7822,51.6189309 L110.264871,61.6811716 C110.229084,61.9184886 110.010602,62.0797133 109.773285,62.0439273 L107.020408,61.628809 C106.783091,61.5930229 106.621866,61.3745404 106.657652,61.1372234 Z M121.106774,58.6076993 L120.171733,63.4135825 C120.125898,63.649165 119.900763,63.8009627 119.665181,63.7551274 L116.908865,63.2188537 C116.673283,63.1730183 116.521485,62.947884 116.567321,62.7123015 L119.079098,49.8023799 C119.124934,49.5667974 119.350068,49.4149996 119.58565,49.460835 L122.341966,49.9971087 C122.577548,50.0429441 122.729346,50.2680784 122.683511,50.5036609 L121.76222,55.2388694 L125.861356,56.0364046 L126.782646,51.3011961 C126.828482,51.0656136 127.053616,50.9138159 127.289198,50.9596512 L130.021956,51.4913414 C130.257538,51.5371768 130.409336,51.7623111 130.363501,51.9978936 L127.851723,64.9078152 C127.805887,65.1433977 127.580753,65.2951955 127.345171,65.2493601 L124.612414,64.7176699 C124.376831,64.6718346 124.225033,64.4467003 124.270869,64.2111178 L125.20591,59.4052345 L121.106774,58.6076993 Z M138.442142,62.9827635 L140.760064,62.629804 C140.993037,62.5898554 141.196168,62.7651775 141.236116,62.9981499 C141.376854,64.3956451 141.903301,65.3462523 142.927227,65.5069219 C144.404958,65.7331748 144.84092,64.2095944 144.964831,63.7210639 L146.953311,55.8813132 C147.012316,55.6486796 147.245628,55.509777 147.478261,55.5687824 L150.153547,56.2473437 C150.38618,56.3063491 150.525083,56.5396602 150.466078,56.7722937 L148.477598,64.6120445 C147.917047,66.8220633 146.148976,69.7904844 142.101152,68.7637916 C139.216496,68.0321255 138.210808,65.9448041 138.021369,63.4702777 C138.004684,63.2432059 138.185907,63.0168116 138.442142,62.9827635 Z M160.69211,58.9106684 C165.757092,60.3147683 166.112754,64.8713812 165.356207,67.6004581 C164.574014,70.422046 161.916654,74.1683027 156.851673,72.7642028 C151.832946,71.3729257 151.483696,66.7931851 152.265889,63.9715971 C153.022436,61.2425202 155.673384,57.5193913 160.69211,58.9106684 Z M157.774916,69.4338039 C160.43461,70.1711166 161.574024,67.4983668 161.817658,66.6195115 C162.061292,65.7406563 162.42856,62.9783801 159.768867,62.2410673 C157.109173,61.5037546 155.978688,64.0544541 155.735054,64.9333094 C155.491421,65.8121646 155.115223,68.6964911 157.774916,69.4338039 Z M172.449196,73.1747985 C173.943854,73.5287635 174.682545,72.075888 174.820813,71.4920369 L176.695722,63.5750164 C176.751029,63.341476 176.982107,63.1988893 177.215647,63.2541963 L179.94807,63.9012887 C180.181611,63.9565958 180.324197,64.1876737 180.26889,64.4212142 L178.393982,72.3382347 C177.851973,74.6269308 175.704085,77.4478844 171.663836,76.4910725 C167.670294,75.5453221 166.992343,72.0551534 167.534352,69.7664572 L169.40926,61.8494367 C169.464567,61.6158963 169.695645,61.4733096 169.929186,61.5286167 L172.638255,62.1701783 C172.871795,62.2254854 173.014382,62.4565633 172.959075,62.6901038 L171.084166,70.6071243 C170.945899,71.1909753 170.954537,72.8208334 172.449196,73.1747985 Z M184.866338,74.4086432 L184.049213,78.6017674 C184.003307,78.8373361 183.778127,78.9890664 183.542559,78.9431605 L180.833518,78.4152424 C180.597949,78.3693365 180.446219,78.1441568 180.492125,77.908588 L183.007769,64.9994193 C183.053675,64.7638505 183.278855,64.6121202 183.514423,64.6580261 L188.320026,65.5945069 C192.159797,66.3427734 192.771791,69.2250489 192.404543,71.1095991 C192.078611,72.7821374 190.949934,73.9314706 189.592453,74.4982842 L191.059981,80.0168775 C191.122075,80.200138 190.939418,80.3846064 190.750963,80.3478816 L187.688569,79.7511047 C187.429443,79.7006082 187.221418,79.513361 187.173097,79.2594299 L186.091296,74.647354 L184.866338,74.4086432 Z M185.522793,71.0400098 L187.383786,71.4026665 C188.373175,71.5954714 188.802153,70.7743635 188.871012,70.4210103 C188.958233,69.9734296 188.850597,69.1455562 187.790537,68.9389795 L186.000215,68.5900945 L185.522793,71.0400098 Z M197.581087,81.4235637 L194.826013,81.0232864 C194.588506,80.9887797 194.426107,80.7711693 194.460613,80.5336629 L196.396437,67.2095538 C196.417141,67.06705 196.553148,66.9655501 196.695652,66.9862541 C196.861906,67.0104088 197.017808,67.1058154 197.122759,67.2180713 L203.217818,74.675892 L204.094287,68.6432295 C204.128794,68.4057231 204.346404,68.2433233 204.583911,68.2778299 L207.362736,68.6815579 C207.600242,68.7160646 207.762642,68.9336751 207.728135,69.1711815 L205.792311,82.4952905 C205.771607,82.6377943 205.608399,82.7595942 205.442145,82.7354395 C205.25214,82.7078342 205.096237,82.6124276 204.970987,82.4729704 L198.926476,75.1680055 L198.07071,81.0581642 C198.036204,81.2956706 197.818593,81.4580704 197.581087,81.4235637 Z M217.962231,78.4717428 L213.68392,78.0822971 L213.512041,79.9704904 L219.128819,80.4817739 C219.367831,80.5035306 219.541635,80.7121455 219.519878,80.9511573 L219.287081,83.5085836 C219.265324,83.7475954 219.056709,83.9213995 218.817697,83.8996427 L210.022063,83.0989945 C209.783051,83.0772378 209.609247,82.8686229 209.631004,82.6296111 L210.823273,69.5317641 C210.84503,69.2927523 211.053645,69.1189482 211.292657,69.140705 L220.088291,69.9413532 C220.327303,69.9631099 220.501107,70.1717248 220.47935,70.4107366 L220.248729,72.9442617 C220.226972,73.1832735 220.018357,73.3570776 219.779346,73.3353208 L214.162568,72.8240373 L213.995041,74.6644283 L218.273352,75.053874 C218.512364,75.0756307 218.686168,75.2842456 218.664412,75.5232574 L218.431614,78.0806837 C218.409858,78.3196955 218.201243,78.4934996 217.962231,78.4717428 Z M229.985973,78.2507531 L229.813336,83.9121215 C229.806021,84.15201 229.608258,84.3380687 229.36837,84.3307536 L226.609652,84.2466298 C226.369763,84.2393147 226.183705,84.0415518 226.19102,83.8016633 L226.362925,78.1642837 L222.036201,70.4448202 C221.944635,70.297961 222.071163,70.0857189 222.263074,70.091571 L225.549546,70.1917881 C225.813423,70.1998347 226.048923,70.3510829 226.185541,70.5953605 L228.245632,74.6920547 L230.623478,70.7306901 C230.774726,70.4951906 231.019004,70.3585727 231.282881,70.3666193 L234.569353,70.4668363 C234.761264,70.4726884 234.874625,70.6922456 234.77428,70.8332527 L229.985973,78.2507531 Z" id="A6monthjourney" fill="#9AABB8"></path>
            <path d="M12.7925756,20.4383887 C16.6982494,20.3987411 21.1423014,20.7300017 22.7977446,25.3036221 C24.3755889,29.6628541 21.8167087,34.4282519 16.349803,36.4070238 C12.8838563,37.6615394 9.75067934,37.8257044 6.14445093,37.3528401 C5.77113564,37.3263128 5.52167677,36.9720667 5.54820406,36.5987514 L6.1942503,32.2428244 C6.22077759,31.8695091 6.57502365,31.6200503 6.94833893,31.6465775 C9.6102105,31.8550668 12.1230203,31.875034 14.1954421,31.1249113 C16.0534754,30.4523875 17.3023287,28.9900436 16.8496684,27.7394443 C16.2806098,26.1672623 14.1053839,26.1867556 11.4755147,26.2899839 C7.43984837,26.4170955 2.3975665,26.6660806 0.535192926,21.5207576 C-1.1590497,16.8399429 1.29811134,12.7983774 6.08612024,11.0653353 C7.65830226,10.4962767 11.0231908,9.52081541 15.9021559,9.937133 C16.2884043,9.9993917 16.5606614,10.3049732 16.5470673,10.7140199 L16.2712683,14.9763468 C16.244741,15.3496621 15.9391595,15.6219193 15.5301128,15.6083251 C13.7510004,15.6056812 10.3972989,15.6071903 8.39633996,16.3314467 C6.89562075,16.874639 5.67022673,17.8435402 6.19741783,19.1884006 C6.89646891,20.6731186 9.64339743,20.4466949 12.7925756,20.4383887 Z" id="Path" fill="#000000"></path>
            <path d="M33.8188056,4.07718259 C43.760252,2.47326787 48.1377625,10.042664 49.0214287,15.5198383 C49.929305,21.1470721 48.1362156,29.596535 38.1947691,31.2004497 C28.2158078,32.8104169 23.8564548,25.3535655 22.9485786,19.7263316 C22.0649124,14.2491573 23.8398442,5.68714981 33.8188056,4.07718259 Z M37.2868929,25.5732159 C43.3267905,24.598762 43.2212317,18.4571716 42.9065013,16.5063972 C42.5917708,14.5556228 40.772632,8.76747747 34.7327343,9.74193132 C28.6553218,10.7224377 28.7487756,16.7889983 29.063506,18.7397727 C29.3782365,20.6905471 31.2094803,26.5537222 37.2868929,25.5732159 Z" id="Combined-Shape" fill="#000000"></path>
            <path d="M62.394539,22.8979994 C66.0045361,22.8934518 66.9118921,19.2063059 66.9101209,17.800307 L66.8906381,2.33431925 C66.8901594,1.95431955 67.1937762,1.64993683 67.5737759,1.64945814 L72.3237721,1.64347446 C72.7037718,1.64299577 73.0081545,1.94661257 73.0086332,2.32661227 L73.0281161,17.7926 C73.0338125,22.3145964 70.3056174,28.5120381 62.4016237,28.5219949 C54.4976299,28.5319518 51.7538294,22.3414033 51.7481329,17.8194069 L51.7286501,2.35341914 C51.7281714,1.97341944 52.0317882,1.66903672 52.4117879,1.66855803 L57.1237842,1.66262222 C57.5037839,1.66214353 57.8081666,1.96576033 57.8086453,2.34576003 L57.8281281,17.8117478 C57.8298993,19.2177466 58.7845419,22.902547 62.394539,22.8979994 Z" id="Path" fill="#000000" transform="translate(62.378387, 15.082740) rotate(-3.000000) translate(-62.378387, -15.082740) "></path>
            <path d="M81.127984,27.439489 L83.2799908,7.30013989 L77.0454831,6.63394642 C76.6676342,6.59357105 76.3976553,6.2589916 76.4380307,5.88114265 L76.8942722,1.6114495 C76.9346476,1.23360055 77.2692271,0.963621677 77.647076,1.00399704 L96.2750293,2.99450238 C96.6528783,3.03487774 96.9228571,3.36945719 96.8824818,3.74730614 L96.4262402,8.0169993 C96.3858648,8.39484825 96.0512854,8.66482712 95.6734364,8.62445176 L89.3633589,7.95018321 L87.2113521,28.0895323 C87.1709768,28.4673813 86.8363973,28.7373602 86.4585484,28.6969848 L81.7354365,28.1922928 C81.3575875,28.1519174 81.0876087,27.817338 81.127984,27.439489 Z" id="Path" fill="#000000" transform="translate(86.660256, 14.850491) rotate(-2.000000) translate(-86.660256, -14.850491) "></path>
            <path d="M104.156836,20.4483479 L102.300774,29.8814826 C102.227412,30.2543337 101.870441,30.493925 101.49759,30.4205628 L96.8369504,29.5035361 C96.4640993,29.4301739 96.224508,29.0732033 96.2978702,28.7003521 L101.169116,3.9430343 C101.242478,3.57018312 101.599449,3.3305919 101.9723,3.40395404 L106.63294,4.32098078 C107.005791,4.39434292 107.245382,4.75131357 107.17202,5.12416474 L105.249932,14.8928654 L114.906777,16.7929449 L116.828865,7.02424415 C116.902228,6.65139298 117.259198,6.41180175 117.632049,6.48516389 L122.218119,7.3875182 C122.59097,7.46088034 122.830561,7.81785099 122.757199,8.19070216 L117.885953,32.94802 C117.812591,33.3208712 117.45562,33.5604624 117.082769,33.4871002 L112.4967,32.5847459 C112.123848,32.5113838 111.884257,32.1544131 111.957619,31.781562 L113.813682,22.3484273 L104.156836,20.4483479 Z" id="Path" fill="#000000" transform="translate(109.527535, 18.445527) rotate(-2.000000) translate(-109.527535, -18.445527) "></path>
            <path d="M150.597533,13.4746515 L155.41939,41.288437 C155.499122,41.5842457 155.191991,41.8574097 154.897888,41.7804733 L149.64079,40.4052356 C149.236398,40.2994481 148.936088,39.9459372 148.885207,39.5398398 L148.249191,34.4636222 L140.67603,32.4825106 L137.635753,36.5970234 C137.39253,36.9261845 136.957582,37.0873544 136.55319,36.9815669 L131.296092,35.6063292 C131.001989,35.5293928 130.867964,35.1408243 131.045573,34.912335 L148.832913,13.0130333 C149.076135,12.6838723 149.501467,12.5594652 149.869096,12.6556357 C150.236725,12.7518061 150.546652,13.0685541 150.597533,13.4746515 Z M146.914957,24.0985214 L143.716306,28.3679977 L147.576413,29.3777876 L146.914957,24.0985214 Z" id="Combined-Shape" fill="#000000"></path>
            <path d="M176.588046,34.5468994 L185.717547,21.4140135 C185.923016,21.1012032 186.297474,20.9317065 186.672441,20.9933543 C187.047407,21.0550021 187.347887,21.3354647 187.436226,21.7350899 L192.386677,48.5433404 C192.449848,48.8618076 192.169386,49.1622884 191.831916,49.1068054 L186.807371,48.2807252 C186.394908,48.2129126 186.100592,47.8949534 186.012254,47.4953282 L183.820827,33.8875461 L175.564046,46.162651 C175.358576,46.4754613 174.984118,46.6449579 174.609152,46.5833102 C174.234186,46.5216624 173.933705,46.2411998 173.839202,45.8790712 L169.947083,31.6065785 L163.51429,43.7964618 C163.302655,44.1467688 162.922032,44.353762 162.50957,44.2859495 L157.485024,43.4598693 C157.147555,43.4043863 156.978058,43.0299282 157.139866,42.7484496 L170.412767,18.936281 C170.624401,18.585974 170.998859,18.4164774 171.336328,18.4719604 C171.711294,18.5336081 172.049272,18.8202355 172.143775,19.1823641 L176.588046,34.5468994 Z" id="Path" fill="#000000" transform="translate(174.736798, 33.787537) rotate(2.300000) translate(-174.736798, -33.787537) "></path>
            <path d="M210.058391,41.2854134 L201.137401,40.8843704 L200.9292,45.5156929 L212.545467,46.0379021 C212.925084,46.0549677 213.215125,46.3723135 213.198059,46.7519301 L213.005217,51.0415977 C212.988152,51.4212143 212.670806,51.7112551 212.291189,51.6941894 L195.284365,50.9296479 C194.904749,50.9125822 194.614708,50.5952364 194.631774,50.2156198 L195.764934,25.0090776 C195.781999,24.629461 196.099345,24.3394202 196.478962,24.3564859 L213.485785,25.1210274 C213.865402,25.138093 214.155443,25.4554389 214.138377,25.8350555 L213.945535,30.124723 C213.928469,30.5043396 213.611124,30.7943804 213.231507,30.7773147 L201.615239,30.2551056 L201.391679,35.228083 L210.312669,35.629126 C210.692286,35.6461917 210.982326,35.9635375 210.965261,36.3431541 L210.772419,40.6328217 C210.755353,41.0124383 210.438007,41.302479 210.058391,41.2854134 Z" id="Path" fill="#000000" transform="translate(204.385075, 38.025338) rotate(3.200000) translate(-204.385075, -38.025338) "></path>
            <path d="M238.170405,34.2743525 C238.467093,38.0246352 236.634261,40.8760619 233.904022,42.5024465 L238.997636,51.4766928 C239.170141,51.7298768 238.969822,52.0887927 238.666769,52.1127676 L233.401221,52.52933 C232.984523,52.5622954 232.587725,52.364974 232.368349,52.0011418 L227.84811,44.0107409 L225.158514,44.2235174 L225.808831,52.4438339 C225.838799,52.8226504 225.559721,53.1496783 225.180904,53.1796469 L220.521462,53.5482596 C220.142646,53.5782282 219.815618,53.2991498 219.785649,52.9203334 L217.79574,27.7669224 C217.765771,27.388106 218.044849,27.061078 218.423666,27.0311095 L227.894077,26.2818965 C235.243115,25.7005073 237.885704,30.6755964 238.170405,34.2743525 Z M229.17902,38.1876424 C231.748978,37.9080932 232.18726,35.7387716 232.109342,34.7538488 C232.022434,33.6552812 231.254497,31.6576221 228.527019,31.8733954 L224.208512,32.2150366 L224.708986,38.541271 L229.17902,38.1876424 Z" id="Combined-Shape" fill="#000000" transform="translate(228.427444, 39.892846) rotate(4.000000) translate(-228.427444, -39.892846) "></path>
            <path d="M245.410946,26.4755109 L250.367282,51.2159346 C250.441925,51.5885314 250.203563,51.9463236 249.830966,52.0209672 L245.210766,52.9465479 C244.83817,53.0211916 244.480377,52.782829 244.405734,52.4102323 L239.449398,27.6698086 C239.374755,27.2972119 239.613117,26.9394196 239.985714,26.864776 L244.605914,25.9391953 C244.97851,25.8645517 245.336303,26.1029142 245.410946,26.4755109 Z" id="Path" fill="#000000" transform="translate(244.908340, 39.442872) rotate(7.000000) translate(-244.908340, -39.442872) "></path>
            <path d="M270.814836,26.0723475 L268.927882,29.906247 C268.755243,30.2111002 268.362142,30.3532115 268.021552,30.1934908 C265.965095,29.1994304 263.105661,28.7785054 261.211629,29.4632237 C255.422324,31.5561362 256.615783,37.4281645 257.287582,39.2864599 C257.959381,41.1447554 260.783797,46.3867634 266.608839,44.2809317 C268.61008,43.5574558 270.555271,41.5612213 271.731035,39.5602967 C271.939411,39.2425242 272.332512,39.1004129 272.650285,39.3087892 L276.175475,41.3477525 C276.528984,41.5432096 276.648278,41.9849663 276.488558,42.3255559 C274.771222,45.7344736 272.337806,48.3920913 268.549742,49.7615279 C259.043846,53.1980386 253.400422,46.7527593 251.46254,41.3922916 C249.576335,36.1747698 249.754932,27.5035302 259.260828,24.0670196 C263.334783,22.5942293 266.93395,23.2730207 270.514673,25.1302806 C270.855263,25.2900012 270.974557,25.7317579 270.814836,26.0723475 Z" id="Path" fill="#000000" transform="translate(263.538376, 36.996222) rotate(2.000000) translate(-263.538376, -36.996222) "></path>
            <path d="M280.155814,19.9123721 L301.356178,38.5510824 C301.603809,38.7314671 301.535927,39.1368557 301.258607,39.261395 L296.301526,41.4875356 C295.920212,41.6587772 295.464591,41.5717971 295.170258,41.2874177 L291.491085,37.7326756 L284.350115,40.9395635 L284.562797,46.0510473 C284.579812,46.459966 284.342135,46.8582945 283.960821,47.0295361 L279.003739,49.2556767 C278.72642,49.380216 278.378324,49.1616364 278.373347,48.8722798 L278.491898,20.6596081 C278.474884,20.2506894 278.728128,19.8870258 279.074777,19.7313516 C279.421426,19.5756774 279.86148,19.6279927 280.155814,19.9123721 Z M283.950909,30.4965692 L284.137433,35.8280797 L287.777248,34.1935009 L283.950909,30.4965692 Z" id="Combined-Shape" fill="#000000" transform="translate(289.941217, 34.468300) rotate(4.000000) translate(-289.941217, -34.468300) "></path>
        </g>
    </g>
</svg>
