<svg width="115" height="115" xmlns="http://www.w3.org/2000/svg">
  <g transform="translate(2 2)" fill-rule="nonzero" stroke="#000" stroke-width="3.358" fill="none">
    <path d="M46.51 60.694l-.582 2.88a7.471 7.471 0 0 0-.143 1.512 7.768 7.768 0 0 1-.816 3.45l-.958 1.911a7.593 7.593 0 0 0-.816 3.45v3.19c-.004.104.005.208.026.31l1.114 5.58c.098.473.071.963-.078 1.422l-.816 2.415a2.706 2.706 0 0 0-.051 1.538l.57 2.299a2.771 2.771 0 0 0 2.693 2.092 2.803 2.803 0 0 0 2.486-1.524l.44-.878c.053-.116.104-.245.143-.362l1.127-3.346a1.3 1.3 0 0 1 .375-.607l.22-.22a2.783 2.783 0 0 0 .816-1.963v-1.886a2.81 2.81 0 0 1 .453-1.537l2.047-3.049a.834.834 0 0 1 .194-.232l2.227-2.222c.168-.167.372-.295.596-.375l1.774-.581a2.595 2.595 0 0 0 1.774-2.455A2.575 2.575 0 0 1 63.28 69l2.058-.517a2.581 2.581 0 0 0 1.697-1.343l2.059-4.108 2.395-4.793a1.72 1.72 0 0 1 .532-.607l3.418-2.26.233-.194 3.445-3.436a1.56 1.56 0 0 0 .427-.801l1.14-5.697a1.5 1.5 0 0 1 .233-.555l1.463-2.196a5.156 5.156 0 0 0 .636-4.396 5.172 5.172 0 0 0-3.019-3.265l-.544-.22-6.384-2.544a1.106 1.106 0 0 0-.194-.065L67.8 30.737c.73-.746.813-1.91.194-2.751l-2.318-3.088a1.583 1.583 0 0 0-1.243-.62h-3.768a1.596 1.596 0 0 1-1.101-.452l-3.095-3.087a1.582 1.582 0 0 0-.79-.427l-6.009-1.201-2.771-.684a5.627 5.627 0 0 0-4.261.628 5.604 5.604 0 0 0-2.563 3.454l-.713 2.841c-1.295 5.426-4.273 16.206.47 21.212 4.741 5.005 7.261 11.251 6.678 14.132z"/>
    <circle cx="55.5" cy="55.5" r="55.5"/>
  </g>
</svg>
